<?xml version="1.0" standalone="no"?>
<!DOCTYPE svg PUBLIC "-//W3C//DTD SVG 20010904//EN"
 "http://www.w3.org/TR/2001/REC-SVG-20010904/DTD/svg10.dtd">
<svg version="1.0" xmlns="http://www.w3.org/2000/svg"
 width="260.000000pt" height="260.000000pt" viewBox="0 0 260.000000 260.000000"
 preserveAspectRatio="xMidYMid meet">
<metadata>
Created by potrace 1.11, written by Peter Selinger 2001-2013
</metadata>
<g transform="translate(0.000000,260.000000) scale(0.100000,-0.100000)"
fill="#000000" stroke="none">
<path d="M0 1300 l0 -1300 1300 0 1300 0 0 1300 0 1300 -1300 0 -1300 0 0
-1300z m994 916 c99 -30 133 -76 208 -276 50 -134 61 -150 98 -150 37 0 48 16
98 150 57 153 87 206 133 240 62 44 119 52 344 48 192 -3 202 -4 244 -28 86
-48 112 -125 82 -239 -17 -65 -475 -1351 -510 -1434 -25 -57 -65 -104 -115
-130 -39 -21 -53 -22 -276 -22 -223 0 -237 1 -276 22 -50 26 -90 73 -115 130
-35 83 -493 1369 -510 1434 -35 134 15 231 134 259 60 15 410 11 461 -4z"/>
<path d="M523 2126 c-41 -18 -57 -49 -49 -95 7 -46 522 -1488 542 -1519 30
-45 68 -52 284 -52 216 0 254 7 284 52 20 31 534 1472 542 1520 8 49 -14 84
-63 98 -25 8 -111 10 -243 8 -221 -3 -233 -6 -264 -59 -19 -31 -98 -239 -157
-409 -75 -215 -123 -215 -198 0 -59 170 -138 378 -157 409 -32 54 -42 56 -274
58 -168 2 -222 0 -247 -11z"/>
</g>
</svg>
